<svg xmlns="http://www.w3.org/2000/svg" xmlns:xlink="http://www.w3.org/1999/xlink" viewBox="0 0 654.55 104.26"><defs><style>.cls-1{fill:#fff;}.cls-2{fill:url(#linear-gradient);}.cls-3{fill:url(#linear-gradient-2);}.cls-4{fill:#f27b55;}</style><linearGradient id="linear-gradient" x1="15.67" y1="85.97" x2="80.05" y2="67.73" gradientUnits="userSpaceOnUse"><stop offset="0" stop-color="#de5a21"/><stop offset="1" stop-color="#f191ac"/></linearGradient><linearGradient id="linear-gradient-2" x1="68.87" y1="112.46" x2="25.89" y2="33.96" xlink:href="#linear-gradient"/></defs><g id="Layer_2" data-name="Layer 2"><g id="Layer_1-2" data-name="Layer 1"><path class="cls-1" d="M232.29,64.49a.63.63,0,0,1-.59-.59V22.35a.63.63,0,0,1,.59-.58h5.92a.47.47,0,0,1,.41.17l30.28,29.4a.22.22,0,0,0,.18.06.19.19,0,0,0,.18-.17L269.2,22.3a.63.63,0,0,1,.59-.59h6.92a.59.59,0,0,1,.59.59l.06,41.54a.66.66,0,0,1-.65.65h-5.63c-.18,0-.36-.06-.41-.18L240.09,34.62a.17.17,0,0,0-.29.12V63.9a.65.65,0,0,1-.65.59Z"/><path class="cls-1" d="M369.72,64.49a.41.41,0,0,1-.41-.41v-42a.41.41,0,0,1,.41-.41H377a.4.4,0,0,1,.41.41v42a.4.4,0,0,1-.41.41Z"/><path class="cls-1" d="M478.52,43.07c0-15.9,16-22.3,26.7-22.3,11.56,0,26.76,7.1,26.76,22.3,0,13.32-11.51,22.36-26.76,22.36C494.24,65.43,478.52,57.33,478.52,43.07Zm8.09,0c0,7.86,8.34,14.26,18.61,14.26s18.66-6.4,18.66-14.26-8.39-14.2-18.66-14.2S486.61,35.26,486.61,43.07Z"/><path class="cls-1" d="M654.11,29.87H620.55a.65.65,0,0,0-.65.64v8a.46.46,0,0,0,.41.47h25.12a.43.43,0,0,1,.41.53l-2.29,7.22a.52.52,0,0,1-.47.35H620.31a.4.4,0,0,0-.41.41v8a.7.7,0,0,0,.65.7h33.56c.3,0,.53.3.41.53L652.23,64a.42.42,0,0,1-.41.29H612.51a.66.66,0,0,1-.71-.64V22.41a.66.66,0,0,1,.71-.64h39.31a.43.43,0,0,1,.41.29l2.29,7.22A.43.43,0,0,1,654.11,29.87Z"/><path class="cls-1" d="M431.74,21.71h-29c-.07,0-.14,0-.14.13l-2.72,7.77a.18.18,0,0,0,.2.2h31.68c6.8,0,18.25,1.76,18.25,13.32,0,9.56-5.11,13.32-18.25,13.32H418.18a1,1,0,0,1-.94-1V37l-8.1,3.12V63.55a1,1,0,0,0,1,1h21.6c19.83,0,26.29-10.92,26.29-21.42C458,30.16,448.29,21.71,431.74,21.71Z"/><path class="cls-1" d="M341,21.83c0-.12-.06-.12-.12-.12H303.62c-.06,0-.12,0-.12.12l-2.4,6.86c0,.12.06.18.17.18h42.09a.16.16,0,0,0,.18-.18Z"/><path class="cls-1" d="M319.07,40.41V64.14a.33.33,0,0,0,.29.35h7.46a.33.33,0,0,0,.29-.35V37.29Z"/><path class="cls-1" d="M590.41,21.83c0-.12-.06-.12-.12-.12H553c-.06,0-.12,0-.12.12l-2.4,6.86a.16.16,0,0,0,.18.18h42.09c.11,0,.17-.06.17-.18Z"/><path class="cls-1" d="M568.46,40.41V64.14a.33.33,0,0,0,.3.35h7.45a.32.32,0,0,0,.29-.35V37.29Z"/><path class="cls-1" d="M207.59,63.84l-21-41.9a.52.52,0,0,0-.41-.23h-8.81a.63.63,0,0,0-.41.23l-21,41.9a.49.49,0,0,0,.41.71h8c.18,0,.3-.12.41-.3l2.86-5.72,5-10a.13.13,0,0,1,0-.06l3.43-6.83h0l5.49-10.89a.16.16,0,0,1,.29,0l5.45,10.89h0l7.8,15.56h0l3.52,7a.45.45,0,0,0,.41.3h8A.53.53,0,0,0,207.59,63.84Z"/><path class="cls-1" d="M194.69,53.9l-10.87-4.09a5.79,5.79,0,0,0-4.06,0L168.89,53.9l-4.34,10.65,15-6.3a5.8,5.8,0,0,1,4.48,0l15,6.3Z"/><path class="cls-2" d="M78,64.76,56.08,56.54a11.66,11.66,0,0,0-8.19,0L26,64.76,17.3,86.2,47.49,73.53a11.61,11.61,0,0,1,9,0L86.67,86.2Z"/><path class="cls-3" d="M103.91,84.78,61.64.47A1,1,0,0,0,60.81,0H43.1a1.22,1.22,0,0,0-.83.47L.12,84.78A1,1,0,0,0,1,86.2H17.12c.36,0,.59-.24.83-.59L23.7,74.1,33.76,54a.57.57,0,0,1,0-.13l6.91-13.73v0h0l11-21.91a.34.34,0,0,1,.59,0l11,21.91h0L79,71.41l0,0,7.09,14.17a.89.89,0,0,0,.83.59h16.17A1.08,1.08,0,0,0,103.91,84.78Z"/><path class="cls-4" d="M326.55,86.56c4.58,0,6.38,2.09,6.38,4.84a3.89,3.89,0,0,1-2.12,3.54,4.18,4.18,0,0,1,2.65,4c0,2.94-1.87,5-6.61,5h-6.7V86.56Zm-3.18,3v4.12h3.18c2.36,0,3.16-1,3.16-2.06s-.8-2.06-3.16-2.06Zm0,6.88V101h3.48c2.57,0,3.4-.91,3.4-2.28s-.83-2.27-3.4-2.27Z"/><path class="cls-4" d="M345.27,101h9v3H342.06V86.56h12.16v3h-9V93.3h7.88v3h-7.88Z"/><path class="cls-4" d="M365.71,104H362.5V86.56h3.21V93.3h6.8V86.56h3.21V104h-3.21V96.28h-6.8Z"/><path class="cls-4" d="M395,100.21h-7.2L386.36,104h-3.27l6.67-17.4H393L399.7,104h-3.3Zm-6.1-3h5l-2.49-6.61Z"/><path class="cls-4" d="M413.7,104h-3.26l-6.32-17.4h3.27l4.68,13.3,4.69-13.3H420Z"/><path class="cls-4" d="M426.86,86.56h3.21V104h-3.21Z"/><path class="cls-4" d="M438.83,94.64c0-6,3-8.35,7.18-8.35s7.14,2.38,7.14,8.35V95.9c0,6-3,8.36-7.14,8.36s-7.18-2.36-7.18-8.36Zm11.09,0c0-4-1.56-5.35-3.91-5.35s-3.94,1.34-3.94,5.35V95.9c0,4,1.55,5.38,3.94,5.38s3.91-1.34,3.91-5.38Z"/><path class="cls-4" d="M468,97.45h-3.43V104h-3.21V86.56H468c4.73,0,6.61,2.19,6.61,5.46a4.88,4.88,0,0,1-3.32,4.87L476,104h-3.66Zm-3.43-7.89v4.9H468c2.57,0,3.4-1,3.4-2.44s-.83-2.46-3.4-2.46Z"/><path class="cls-4" d="M493.89,100.21h-7.2L485.27,104H482l6.67-17.4h3.27l6.67,17.4h-3.3Zm-6.1-3h5l-2.49-6.61Z"/><path class="cls-4" d="M506,86.56h3.21V101h7.87v3H506Z"/><path class="cls-4" d="M544,86.56c4.58,0,6.37,2.09,6.37,4.84a3.88,3.88,0,0,1-2.12,3.54,4.18,4.18,0,0,1,2.65,4c0,2.94-1.87,5-6.61,5h-6.69V86.56Zm-3.19,3v4.12H544c2.35,0,3.16-1,3.16-2.06s-.81-2.06-3.16-2.06Zm0,6.88V101h3.48c2.57,0,3.4-.91,3.4-2.28s-.83-2.27-3.4-2.27Z"/><path class="cls-4" d="M567.92,100.21h-7.2L559.3,104H556l6.67-17.4H566l6.67,17.4h-3.3Zm-6.1-3h5l-2.49-6.61Z"/><path class="cls-4" d="M581.13,95.9c0,3.94,1.79,5.38,4.5,5.38a6.66,6.66,0,0,0,4.17-1.44l1,2.92a8.44,8.44,0,0,1-5.14,1.5c-4.47,0-7.72-2.41-7.72-8.36V94.62c0-5.89,3.25-8.33,7.72-8.33a9.61,9.61,0,0,1,5.14,1.5l-1,2.92a7.9,7.9,0,0,0-4.17-1.42c-2.71,0-4.5,1.47-4.5,5.33Z"/><path class="cls-4" d="M597.55,86.56h3.21V104h-3.21Zm9.72,0h3.8l-6.16,8.3,6.7,9.1H607.8l-6.69-9.1Z"/><path class="cls-4" d="M618.22,86.56h3.22v9.26c0,4.12,1.44,5.46,3.67,5.46s3.66-1.34,3.66-5.46V86.56H632v9.26c0,6.08-2.92,8.44-6.88,8.44s-6.89-2.36-6.89-8.44Z"/><path class="cls-4" d="M647.63,86.56c4.74,0,6.61,2.33,6.61,5.75S652.37,98,647.63,98h-3.4V104H641V86.56Zm-3.4,3V95h3.4c2.57,0,3.4-1,3.4-2.73s-.83-2.75-3.4-2.75Z"/></g></g></svg>